<?xml version="1.0" encoding="UTF-8" standalone="no"?>
<!-- Created with Inkscape (http://www.inkscape.org/) -->

<svg
   width="282.38507mm"
   height="114.569mm"
   viewBox="0 0 282.38507 114.569"
   version="1.1"
   id="svg3033"
   inkscape:version="1.2.2 (1:1.2.2+202305151914+b0a8486541)"
   sodipodi:docname="torment-nexus-curves.svg"
   inkscape:export-filename="torment-nexus.png"
   inkscape:export-xdpi="96"
   inkscape:export-ydpi="96"
   xml:space="preserve"
   xmlns:inkscape="http://www.inkscape.org/namespaces/inkscape"
   xmlns:sodipodi="http://sodipodi.sourceforge.net/DTD/sodipodi-0.dtd"
   xmlns="http://www.w3.org/2000/svg"
   xmlns:svg="http://www.w3.org/2000/svg"
   xmlns:rdf="http://www.w3.org/1999/02/22-rdf-syntax-ns#"
   xmlns:cc="http://creativecommons.org/ns#"
   xmlns:dc="http://purl.org/dc/elements/1.1/"><title
     id="title47266">Torment Nexus Logo</title><sodipodi:namedview
     id="namedview3035"
     pagecolor="#e0e0e0"
     bordercolor="#000000"
     borderopacity="0.25"
     inkscape:showpageshadow="2"
     inkscape:pageopacity="0"
     inkscape:pagecheckerboard="0"
     inkscape:deskcolor="#dbdbdb"
     inkscape:document-units="mm"
     showgrid="false"
     showguides="true"
     inkscape:zoom="0.93806818"
     inkscape:cx="635.34828"
     inkscape:cy="212.1381"
     inkscape:window-width="2560"
     inkscape:window-height="1403"
     inkscape:window-x="0"
     inkscape:window-y="0"
     inkscape:window-maximized="1"
     inkscape:current-layer="g8091"><sodipodi:guide
       position="-226.38033,218.40031"
       orientation="0,-1"
       id="guide4358"
       inkscape:locked="false" /><sodipodi:guide
       position="-191.51281,132.22386"
       orientation="0,-1"
       id="guide4360"
       inkscape:locked="false" /><sodipodi:guide
       position="128.01306,334.00152"
       orientation="1,0"
       id="guide5103"
       inkscape:locked="false" /><sodipodi:guide
       position="83.216497,361.40141"
       orientation="0,-1"
       id="guide6949"
       inkscape:locked="false" /><sodipodi:guide
       position="282.38505,4.3192073"
       orientation="1,0"
       id="guide8093"
       inkscape:locked="false" /><sodipodi:guide
       position="133.59682,-35.3663"
       orientation="0,-1"
       id="guide22861"
       inkscape:locked="false" /><sodipodi:guide
       position="304.28222,-122.06359"
       orientation="0,-1"
       id="guide22863"
       inkscape:locked="false" /><sodipodi:guide
       position="305.73221,-142.14864"
       orientation="0,-1"
       id="guide22865"
       inkscape:locked="false" /><sodipodi:guide
       position="411.22151,-88.745216"
       orientation="1,0"
       id="guide22867"
       inkscape:locked="false" /><sodipodi:guide
       position="111.01818,-46.245512"
       orientation="1,0"
       id="guide22869"
       inkscape:locked="false" /><sodipodi:guide
       position="108.68119,-335.58907"
       orientation="0,-1"
       id="guide22871"
       inkscape:locked="false" /><sodipodi:guide
       position="217.7811,-343.05923"
       orientation="1,0"
       id="guide22873"
       inkscape:locked="false" /><sodipodi:guide
       position="197.69569,-344.13987"
       orientation="1,0"
       id="guide22875"
       inkscape:locked="false" /><sodipodi:guide
       position="324.54401,-340.33102"
       orientation="1,0"
       id="guide22877"
       inkscape:locked="false" /><sodipodi:guide
       position="278.38499,85.414545"
       orientation="1,0"
       id="guide22879"
       inkscape:locked="false" /><sodipodi:guide
       position="324.54401,-257.06496"
       orientation="0,-1"
       id="guide22935"
       inkscape:locked="false" /><sodipodi:guide
       position="197.69568,-220.67311"
       orientation="0,-1"
       id="guide22937"
       inkscape:locked="false" /><sodipodi:guide
       position="54.447218,110.24979"
       orientation="0,-1"
       id="guide23161"
       inkscape:locked="false" /><sodipodi:guide
       position="4.0000545,86.690692"
       orientation="1,0"
       id="guide23163"
       inkscape:locked="false" /><sodipodi:guide
       position="71.286039,24.177176"
       orientation="0,-1"
       id="guide44907"
       inkscape:locked="false" /><sodipodi:guide
       position="-1.0249583e-05,4.3192074"
       orientation="0,-1"
       id="guide44967"
       inkscape:locked="false" /></sodipodi:namedview><defs
     id="defs3030"><inkscape:path-effect
       effect="copy_rotate"
       starting_point="183.21649,-246.83241"
       origin="83.216492,-246.83241"
       id="path-effect7936"
       is_visible="true"
       lpeversion="1.2"
       lpesatellites=""
       method="normal"
       num_copies="5"
       starting_angle="0"
       rotation_angle="72"
       gap="-0.01"
       copies_to_360="true"
       mirror_copies="false"
       split_items="false"
       link_styles="false" /><clipPath
       clipPathUnits="userSpaceOnUse"
       id="clipPath3960"><rect
         style="fill:#009900;stroke-width:0.264583;stroke-linecap:round;stroke-miterlimit:10;-inkscape-stroke:none;paint-order:markers fill stroke;stop-color:#000000"
         id="rect3962"
         width="300.20224"
         height="300.20331"
         x="-35.87035"
         y="-58.71703"
         ry="45.119576" /></clipPath><clipPath
       clipPathUnits="userSpaceOnUse"
       id="clipPath3960-8"><rect
         style="fill:#009900;stroke-width:0.264583;stroke-linecap:round;stroke-miterlimit:10;-inkscape-stroke:none;paint-order:markers fill stroke;stop-color:#000000"
         id="rect3962-9"
         width="300.20224"
         height="300.20331"
         x="-35.87035"
         y="-58.71703"
         ry="45.119576" /></clipPath><clipPath
       clipPathUnits="userSpaceOnUse"
       id="clipPath3960-2"><rect
         style="fill:#009900;stroke-width:0.264583;stroke-linecap:round;stroke-miterlimit:10;-inkscape-stroke:none;paint-order:markers fill stroke;stop-color:#000000"
         id="rect3962-7"
         width="300.20224"
         height="300.20331"
         x="-35.87035"
         y="-58.71703"
         ry="45.119576" /></clipPath><clipPath
       clipPathUnits="userSpaceOnUse"
       id="clipPath3960-0"><rect
         style="fill:#009900;stroke-width:0.264583;stroke-linecap:round;stroke-miterlimit:10;-inkscape-stroke:none;paint-order:markers fill stroke;stop-color:#000000"
         id="rect3962-6"
         width="300.20224"
         height="300.20331"
         x="-35.87035"
         y="-58.71703"
         ry="45.119576" /></clipPath><clipPath
       clipPathUnits="userSpaceOnUse"
       id="clipPath3960-9"><rect
         style="fill:#009900;stroke-width:0.264583;stroke-linecap:round;stroke-miterlimit:10;-inkscape-stroke:none;paint-order:markers fill stroke;stop-color:#000000"
         id="rect3962-0"
         width="300.20224"
         height="300.20331"
         x="-35.87035"
         y="-58.71703"
         ry="45.119576" /></clipPath><clipPath
       clipPathUnits="userSpaceOnUse"
       id="clipPath23094"><rect
         style="font-variation-settings:normal;opacity:1;fill:#80ff80;fill-opacity:1;stroke:#0066ff;stroke-width:0.264999;stroke-linecap:round;stroke-linejoin:miter;stroke-miterlimit:10;stroke-dasharray:none;stroke-dashoffset:0;stroke-opacity:1;paint-order:markers fill stroke;stop-color:#000000;stop-opacity:1"
         id="rect23096"
         width="300.23737"
         height="300.09027"
         x="110.98414"
         y="150.06779"
         ry="71.620605" /></clipPath></defs><g
     inkscape:label="Layer 1"
     inkscape:groupmode="layer"
     id="layer1"><g
       id="g8065"
       transform="matrix(0.67171666,0,0,0.67171667,24.11744,-84.232116)"
       style="stroke-width:1.48873"><g
         id="g8091"
         transform="translate(288.15243,461.14861)"
         inkscape:export-filename="g8091.png"
         inkscape:export-xdpi="300"
         inkscape:export-ydpi="300"><g
           id="g5095"
           transform="matrix(1.4967445,0,0,1.4967444,162.76238,-173.91131)"
           style="stroke-width:1.48075"><g
             aria-label="Torment
Nexus"
             id="text4156"
             style="font-weight:bold;font-size:50.8px;line-height:0.8;font-family:'Cairo Play';-inkscape-font-specification:'Cairo Play, Bold';letter-spacing:0px;baseline-shift:sub;fill:#0066ff;stroke-width:0.263165;stroke-linecap:round;stroke-miterlimit:10;paint-order:markers fill stroke;stop-color:#000000"><path
               d="m -222.71102,-63.99497 h 8.68164 v -32.469336 h 7.78868 v -7.366994 h -24.20938 v 7.366994 h 7.73906 z"
               style="font-family:Decalotype;-inkscape-font-specification:'Decalotype Bold';baseline-shift:sub"
               id="path46479" /><path
               d="m -196.54207,-63.350048 c 7.66465,0 12.35273,-4.787305 12.35273,-15.329297 0,-10.765234 -4.68808,-15.45332 -12.35273,-15.45332 -7.59024,0 -12.40235,4.688086 -12.40235,15.45332 0,10.541992 4.81211,15.329297 12.40235,15.329297 z m -0.0744,-6.325196 c -2.53008,0 -4.21679,-1.785937 -4.21679,-9.05371 0,-7.466211 1.68671,-9.15293 4.21679,-9.15293 2.67891,0 4.36563,1.686719 4.36563,9.15293 0,7.267773 -1.68672,9.05371 -4.36563,9.05371 z"
               style="font-family:Decalotype;-inkscape-font-specification:'Decalotype Bold';baseline-shift:sub"
               id="path46481" /><path
               d="m -179.94774,-63.99497 h 8.4584 v -14.312305 c 0,-5.407422 2.03398,-7.565429 5.01055,-7.689453 0.69453,-0.0248 1.51308,0.09922 2.38125,0.347266 v -7.887891 c -0.57051,-0.347265 -1.33946,-0.471289 -2.40606,-0.471289 -2.03398,0 -4.51445,1.835547 -5.58105,5.035352 h -0.27285 l -0.47129,-4.588867 h -7.11895 z"
               style="font-family:Decalotype;-inkscape-font-specification:'Decalotype Bold';baseline-shift:sub"
               id="path46483" /><path
               d="m -160.87293,-63.99497 h 8.4584 v -17.4625 c 0,-3.348633 0.99218,-5.407422 3.05097,-5.407422 1.88516,0 2.80293,1.066602 2.80293,4.167188 v 18.702734 h 8.4584 v -17.4625 c 0,-3.373438 0.99219,-5.407422 3.07578,-5.407422 1.90996,0 2.90215,1.141016 2.90215,3.795117 v 19.074805 h 8.4584 v -21.034375 c 0,-6.225976 -2.92695,-9.078515 -7.46621,-9.10332 -3.91914,-0.02481 -6.20117,1.860351 -7.9127,5.432226 h -0.17363 c -0.81856,-4.216797 -3.07578,-5.432226 -6.37481,-5.432226 -3.34863,0 -5.55625,1.95957 -6.87089,4.985742 h -0.19844 l -0.39688,-4.415234 h -7.81347 z"
               style="font-family:Decalotype;-inkscape-font-specification:'Decalotype Bold';baseline-shift:sub"
               id="path46485" /><path
               d="m -106.6747,-69.997705 c -3.05097,0 -5.18417,-2.629296 -5.10976,-6.771679 h 15.254882 c 0.198437,-1.091406 0.248047,-2.852539 0.248047,-3.671094 0,-8.160742 -3.472656,-13.692187 -11.558989,-13.692187 -8.35917,0 -12.07988,6.201172 -12.07988,15.527734 0,9.921875 5.43223,15.230078 12.82403,15.230078 4.68808,0 8.656831,-1.736328 10.641206,-7.689453 l -6.002736,-1.835547 c -0.89297,2.033984 -2.30683,2.902148 -4.2168,2.902148 z m -0.81855,-17.859374 c 3.29902,0 4.04316,2.579687 4.19199,5.853906 h -8.33437 c 0.0744,-3.050977 0.94258,-5.853906 4.14238,-5.853906 z"
               style="font-family:Decalotype;-inkscape-font-specification:'Decalotype Bold';baseline-shift:sub"
               id="path46487" /><path
               d="m -91.940704,-63.99497 h 8.458398 v -18.107422 c 0,-3.472656 1.537891,-5.531445 4.043164,-5.531445 2.207617,0 3.398242,1.289844 3.398242,4.588867 v 19.05 h 8.408789 v -19.942969 c 0,-6.176367 -3.373437,-10.194726 -8.284766,-10.194726 -3.596679,0 -6.077148,1.934765 -7.441406,5.060156 h -0.37207 l -0.396875,-4.489648 h -7.813476 z"
               style="font-family:Decalotype;-inkscape-font-specification:'Decalotype Bold';baseline-shift:sub"
               id="path46489" /><path
               d="m -54.187973,-63.99497 h 5.804297 v -6.573242 h -1.761133 c -2.80293,0 -3.423047,-0.79375 -3.423047,-4.737696 v -12.799218 h 5.208984 v -5.457031 h -5.208984 v -6.796483 h -6.027539 l -1.736328,6.796483 h -3.770313 v 5.457031 h 3.100586 v 14.858007 c 0,6.498828 2.058789,9.252149 7.813477,9.252149 z"
               style="font-family:Decalotype;-inkscape-font-specification:'Decalotype Bold';baseline-shift:sub"
               id="path46491" /><path
               d="m -205.86863,-58.676421 v 22.820312 l 0.69453,8.235156 -10.93887,-31.055468 h -11.23652 v 39.836327 h 8.23515 v -22.944335 l -0.71933,-8.383985 10.91406,31.32832 h 11.26133 v -39.836327 z"
               style="font-family:Decalotype;-inkscape-font-specification:'Decalotype Bold';baseline-shift:sub"
               id="path46493" /><path
               d="m -179.47645,-24.842828 c -3.05098,0 -5.18418,-2.629297 -5.10976,-6.77168 h 15.25488 c 0.19844,-1.091406 0.24804,-2.852539 0.24804,-3.671093 0,-8.160742 -3.47265,-13.692188 -11.55898,-13.692188 -8.35918,0 -12.07988,6.201172 -12.07988,15.527735 0,9.921874 5.43222,15.230077 12.82402,15.230077 4.68809,0 8.65684,-1.736328 10.64121,-7.689453 l -6.00273,-1.835546 c -0.89297,2.033984 -2.30684,2.902148 -4.2168,2.902148 z m -0.81855,-17.859375 c 3.29902,0 4.04316,2.579688 4.19199,5.853906 h -8.33438 c 0.0744,-3.050976 0.94258,-5.853906 4.14239,-5.853906 z"
               style="font-family:Decalotype;-inkscape-font-specification:'Decalotype Bold';baseline-shift:sub"
               id="path46495" /><path
               d="m -168.06629,-18.840094 h 8.73125 l 4.53925,-10.021093 4.56407,10.021093 h 8.73125 l -7.88789,-14.882812 7.88789,-14.684375 h -8.73125 l -4.56407,9.822656 -4.53925,-9.822656 h -8.73125 l 7.88789,14.684375 z"
               style="font-family:Decalotype;-inkscape-font-specification:'Decalotype Bold';baseline-shift:sub"
               id="path46497" /><path
               d="m -131.15692,-18.269586 c 3.67109,0 6.10195,-1.909961 7.49102,-5.060156 h 0.37207 l 0.39687,4.489648 h 7.81348 v -29.567187 h -8.4584 v 18.107422 c 0,3.472656 -1.51309,5.531445 -4.09277,5.531445 -2.75332,0 -3.34864,-2.430859 -3.34864,-4.588867 v -19.05 h -8.40879 v 19.942969 c 0,6.176367 3.39825,10.194726 8.23516,10.194726 z"
               style="font-family:Decalotype;-inkscape-font-specification:'Decalotype Bold';baseline-shift:sub"
               id="path46499" /><path
               d="m -99.25809,-18.219977 c 5.531445,0 10.045898,-3.050976 10.045898,-8.880078 0,-5.109765 -3.54707,-7.342187 -7.267773,-9.078515 -3.125391,-1.438672 -6.077145,-2.455664 -6.077145,-4.812109 0,-1.934766 1.31464,-2.654102 3.026168,-2.654102 1.984375,0 3.54707,1.736328 4.241602,4.092774 l 5.754687,-1.661914 c -1.364258,-6.35 -6.275586,-7.788672 -10.790037,-7.788672 -4.66328,0 -9.77305,2.530078 -9.77305,8.508007 0,4.886524 3.52227,6.870899 6.84609,8.433594 3.05098,1.463477 5.903521,2.406055 5.903521,4.861719 0,1.885156 -1.364258,2.703711 -2.902151,2.703711 -2.43086,0 -4.46484,-1.736328 -5.43222,-5.208985 l -6.07715,2.38125 c 1.73633,6.201172 6.62285,9.10332 12.50156,9.10332 z"
               style="font-family:Decalotype;-inkscape-font-specification:'Decalotype Bold';baseline-shift:sub"
               id="path46501" /></g></g><g
           aria-label="Manmade horrors beyond your comprehension"
           id="text5099"
           style="font-style:italic;font-weight:300;font-size:19.4387px;line-height:0px;font-family:Decalotype;-inkscape-font-specification:'Decalotype Light Italic';text-align:center;letter-spacing:0.421464px;text-anchor:middle;fill:#0066ff;stroke-width:0.393891;stroke-linecap:round;stroke-miterlimit:10;paint-order:markers fill stroke;stop-color:#000000"><path
             d="m -302.18221,-177.41299 h 1.43322 l 2.01221,-11.39936 0.46509,-2.64814 h 0.0759 l 0.93966,14.0475 h 1.74645 l 5.88476,-14.0475 h 0.0569 l -0.47458,2.6956 -2.00272,11.3519 h 1.43323 l 2.68611,-15.24344 h -2.5912 l -5.64747,13.81021 -0.75932,-13.81021 h -2.57221 z"
             id="path46504" /><path
             d="m -282.14171,-188.94523 c -1.58509,0 -2.88543,0.69288 -3.99594,2.25899 l 0.93966,0.82576 c 0.80678,-1.14847 1.75594,-1.78441 3.11323,-1.78441 1.31932,0 1.95526,0.55051 1.66102,2.21153 l -0.1139,0.63594 c -1.74644,0.18034 -3.23662,0.64542 -4.42306,1.26237 -1.38577,0.81628 -2.23052,1.81289 -2.51526,3.41696 -0.28475,1.62306 0.71186,2.95188 2.49628,2.95188 1.15796,0 2.50577,-0.80679 3.38848,-2.05967 h 0.0949 l -0.24679,1.81289 h 1.18645 l 1.43322,-8.12477 c 0.38916,-2.21154 -0.95864,-3.40747 -3.01831,-3.40747 z m -2.5817,10.43122 c -0.89221,0 -1.45221,-0.59797 -1.27187,-1.61357 0.17085,-0.96814 0.77831,-1.71797 1.61356,-2.22102 0.95865,-0.6739 2.29696,-1.07255 3.62578,-1.21492 l -0.46509,2.61967 c -0.80678,1.2339 -1.98373,2.42984 -3.50238,2.42984 z"
             id="path46506" /><path
             d="m -277.51549,-177.41299 h 1.37628 l 1.16746,-6.60612 c 0.37017,-2.1356 1.72746,-3.62578 3.23662,-3.62578 1.10102,0 1.66102,0.57899 1.31932,2.54374 l -1.35729,7.68816 h 1.37628 l 1.35729,-7.72613 c 0.41763,-2.34441 -0.51255,-3.80611 -2.43933,-3.80611 -1.16746,0 -2.14509,0.74983 -2.89492,1.93628 h -0.0759 l 0.32272,-1.71798 h -1.39526 z"
             id="path46508" /><path
             d="m -267.35569,-177.41299 h 1.37627 l 1.16747,-6.62511 c 0.34169,-1.94577 1.27186,-3.64475 2.83797,-3.64475 1.30983,0 1.56611,0.72135 1.27187,2.61966 l -1.3478,7.6502 h 1.36678 l 1.16746,-6.62511 c 0.3417,-1.96475 1.28136,-3.64475 2.81899,-3.64475 1.32882,0 1.61357,1.05356 1.40475,2.23051 l -1.41424,8.03935 h 1.36678 l 1.40475,-7.97291 c 0.37018,-2.09763 -0.38915,-3.54035 -2.32543,-3.55933 -1.2339,-0.019 -2.09763,0.59797 -3.01831,1.98373 h -0.0664 c -0.0664,-1.60407 -1.06305,-1.98373 -2.17357,-1.98373 -1.12949,0 -2.06915,0.70237 -2.71458,1.98373 h -0.0475 l 0.29424,-1.76543 h -1.37627 z"
             id="path46510" /><path
             d="m -247.4196,-188.94523 c -1.58509,0 -2.88543,0.69288 -3.99594,2.25899 l 0.93966,0.82576 c 0.80679,-1.14847 1.75594,-1.78441 3.11323,-1.78441 1.31933,0 1.95526,0.55051 1.66103,2.21153 l -0.1139,0.63594 c -1.74645,0.18034 -3.23662,0.64542 -4.42307,1.26237 -1.38576,0.81628 -2.23051,1.81289 -2.51526,3.41696 -0.28475,1.62306 0.71187,2.95188 2.49628,2.95188 1.15797,0 2.50577,-0.80679 3.38848,-2.05967 h 0.0949 l -0.24678,1.81289 h 1.18644 l 1.43323,-8.12477 c 0.38915,-2.21154 -0.95865,-3.40747 -3.01832,-3.40747 z m -2.5817,10.43122 c -0.8922,0 -1.45221,-0.59797 -1.27187,-1.61357 0.17085,-0.96814 0.77831,-1.71797 1.61357,-2.22102 0.95864,-0.6739 2.29695,-1.07255 3.62577,-1.21492 l -0.46509,2.61967 c -0.80678,1.2339 -1.98373,2.42984 -3.50238,2.42984 z"
             id="path46512" /><path
             d="m -233.76691,-192.65643 -1.0061,5.74239 h -0.0949 c -0.4461,-1.30983 -1.26237,-2.03119 -2.72407,-2.03119 -2.4773,0 -4.24273,2.11662 -4.88815,5.78035 -0.62645,3.52137 0.31322,5.99867 2.98034,5.99867 1.37628,0 2.42035,-0.66441 3.30307,-2.0217 h 0.0474 l -0.30373,1.77492 h 1.37628 l 2.68611,-15.24344 z m -5.32476,14.22784 c -1.49017,0 -2.60068,-1.30034 -2.03119,-4.54645 0.57898,-3.27459 2.27797,-4.66985 3.8251,-4.66985 1.69898,0 2.41085,1.74645 1.92678,4.48001 -0.51254,2.89493 -1.93628,4.73629 -3.72069,4.73629 z"
             id="path46514" /><path
             d="m -226.48305,-188.94523 c -3.13221,0 -4.58442,2.96136 -5.07798,5.76137 -0.53152,3.00882 0.30373,5.98917 3.44544,5.98917 1.08203,0 2.25899,-0.31322 3.4834,-1.41424 l -0.71187,-1.0061 c -0.84475,0.74983 -1.76543,1.13898 -2.71458,1.13898 -2.00272,0 -2.51527,-1.91729 -2.2495,-3.99594 h 6.64408 c 0.0475,-0.17085 0.0759,-0.33221 0.12339,-0.60746 0.4556,-2.57221 0.55051,-5.86578 -2.94238,-5.86578 z m -0.0949,1.28136 c 2.11661,0 2.26848,1.49966 1.87932,3.97696 h -5.3912 c 0.42712,-1.98374 1.40475,-3.97696 3.51188,-3.97696 z"
             id="path46516" /><path
             d="m -217.51535,-177.41299 h 1.37627 l 1.16746,-6.60612 c 0.37018,-2.1356 1.72747,-3.62578 3.23662,-3.62578 1.10102,0 1.66103,0.57899 1.31933,2.54374 l -1.35729,7.68816 h 1.37627 l 1.3573,-7.72613 c 0.41762,-2.34441 -0.51255,-3.80611 -2.43933,-3.80611 -1.16746,0 -2.14509,0.74983 -2.89493,1.93628 h -0.0759 l 1.0156,-5.64748 h -1.39526 z"
             id="path46518" /><path
             d="m -203.78673,-177.16621 c 2.41085,0 4.499,-1.81289 5.19188,-5.76138 0.73085,-4.10984 -0.7878,-6.01764 -3.28408,-6.01764 -2.44882,0 -4.49899,1.81289 -5.20137,5.82781 -0.71186,4.0434 0.75933,5.95121 3.29357,5.95121 z m 0.057,-1.28136 c -1.69899,0 -2.59119,-1.23391 -2.0217,-4.48002 0.60746,-3.40746 2.03119,-4.75526 3.8156,-4.75526 1.74645,0 2.62916,1.25288 2.05018,4.56543 -0.58848,3.34103 -2.01221,4.66985 -3.84408,4.66985 z"
             id="path46520" /><path
             d="m -197.05338,-177.41299 h 1.37627 l 1.06306,-6.04612 c 0.4461,-2.49628 1.59458,-3.95798 3.18916,-4.08137 0.19932,-0.0285 0.51254,-0.009 0.86373,0.0949 l 0.2183,-1.26237 c -0.24678,-0.1139 -0.63593,-0.18983 -1.12949,-0.18983 -0.92068,0 -1.81289,0.68339 -2.4773,1.98373 h -0.057 l 0.3417,-1.81289 h -1.39526 z"
             id="path46522" /><path
             d="m -190.63326,-177.41299 h 1.37627 l 1.06306,-6.04612 c 0.4461,-2.49628 1.59458,-3.95798 3.18916,-4.08137 0.19932,-0.0285 0.51254,-0.009 0.86373,0.0949 l 0.2183,-1.26237 c -0.24678,-0.1139 -0.63593,-0.18983 -1.12949,-0.18983 -0.92068,0 -1.81289,0.68339 -2.4773,1.98373 h -0.057 l 0.3417,-1.81289 h -1.39526 z"
             id="path46524" /><path
             d="m -180.86262,-177.16621 c 2.41086,0 4.499,-1.81289 5.19188,-5.76138 0.73085,-4.10984 -0.7878,-6.01764 -3.28408,-6.01764 -2.44882,0 -4.49899,1.81289 -5.20137,5.82781 -0.71186,4.0434 0.75933,5.95121 3.29357,5.95121 z m 0.057,-1.28136 c -1.69899,0 -2.59119,-1.23391 -2.0217,-4.48002 0.60746,-3.40746 2.03119,-4.75526 3.8156,-4.75526 1.74645,0 2.62916,1.25288 2.05018,4.56543 -0.58848,3.34103 -2.01221,4.66985 -3.84408,4.66985 z"
             id="path46526" /><path
             d="m -174.12927,-177.41299 h 1.37627 l 1.06306,-6.04612 c 0.4461,-2.49628 1.59458,-3.95798 3.18916,-4.08137 0.19932,-0.0285 0.51254,-0.009 0.86373,0.0949 l 0.2183,-1.26237 c -0.24678,-0.1139 -0.63593,-0.18983 -1.12949,-0.18983 -0.92068,0 -1.81289,0.68339 -2.4773,1.98373 h -0.0569 l 0.34169,-1.81289 h -1.39526 z"
             id="path46528" /><path
             d="m -164.49152,-177.19469 c 1.83187,0 3.38849,-1.18644 3.70171,-2.97085 0.36068,-2.05967 -0.87322,-2.819 -2.4678,-3.46442 -1.14848,-0.52204 -2.2495,-0.95865 -2.01221,-2.27797 0.24678,-1.39526 1.43322,-1.90781 2.42034,-1.90781 0.87322,0 1.63255,0.38916 1.76543,1.71797 l 1.21492,-0.30372 c -0.19932,-1.89832 -1.59458,-2.54374 -2.97086,-2.54374 -1.47119,0 -3.45492,0.79729 -3.83458,2.95187 -0.35119,2.01221 1.05356,2.66713 2.40136,3.2651 1.19593,0.61695 2.32543,1.02508 2.07865,2.39187 -0.21831,1.26237 -1.27187,1.95526 -2.42035,1.95526 -1.17695,0 -2.38238,-0.94916 -2.37288,-2.76204 l -1.30984,0.52203 c 0.21831,2.12611 1.59458,3.42645 3.80611,3.42645 z"
             id="path46530" /><path
             d="m -147.94956,-188.94523 c -1.36678,0 -2.38238,0.64542 -3.29357,1.99323 h -0.0474 l 0.99661,-5.70443 h -1.37628 l -2.6861,15.24344 h 1.37627 l 0.31322,-1.82238 h 0.0949 c 0.41763,1.30983 1.26237,2.06916 2.71458,2.06916 2.5912,0 4.29967,-2.38238 4.89764,-5.80883 0.66441,-3.75866 -0.41763,-5.97019 -2.98984,-5.97019 z m 1.63255,5.78035 c -0.58848,3.34103 -2.26848,4.73629 -3.83459,4.73629 -1.70848,0 -2.41085,-1.74645 -1.91729,-4.54645 0.50305,-2.82849 1.91729,-4.66985 3.7112,-4.66985 1.4522,0 2.60068,1.30034 2.04068,4.48001 z"
             id="path46532" /><path
             d="m -137.83721,-188.94523 c -3.13221,0 -4.58442,2.96136 -5.07798,5.76137 -0.53153,3.00882 0.30373,5.98917 3.44543,5.98917 1.08204,0 2.25899,-0.31322 3.4834,-1.41424 l -0.71186,-1.0061 c -0.84475,0.74983 -1.76543,1.13898 -2.71459,1.13898 -2.00272,0 -2.51526,-1.91729 -2.2495,-3.99594 h 6.64409 c 0.0475,-0.17085 0.0759,-0.33221 0.12339,-0.60746 0.45559,-2.57221 0.55051,-5.86578 -2.94238,-5.86578 z m -0.0949,1.28136 c 2.11662,0 2.26848,1.49966 1.87933,3.97696 h -5.3912 c 0.42712,-1.98374 1.40475,-3.97696 3.51187,-3.97696 z"
             id="path46534" /><path
             d="m -126.67132,-188.72693 -4.13831,10.43122 -0.19933,-4.29018 -0.25627,-6.14104 h -1.49017 l 0.81627,11.31394 h 0.72136 c -0.56,1.48068 -1.32882,2.64814 -2.49628,2.64814 -0.54102,0 -0.79729,-0.019 -1.10102,-0.13288 l -0.4461,1.02508 c 0.48407,0.17085 0.93966,0.25628 1.35729,0.25628 1.7939,0 2.87594,-1.31933 3.92001,-3.74917 l 4.81222,-11.36139 z"
             id="path46536" /><path
             d="m -121.8173,-177.16621 c 2.41085,0 4.499,-1.81289 5.19188,-5.76138 0.73085,-4.10984 -0.7878,-6.01764 -3.28408,-6.01764 -2.44882,0 -4.49899,1.81289 -5.20137,5.82781 -0.71187,4.0434 0.75932,5.95121 3.29357,5.95121 z m 0.057,-1.28136 c -1.69899,0 -2.5912,-1.23391 -2.0217,-4.48002 0.60746,-3.40746 2.03119,-4.75526 3.8156,-4.75526 1.74645,0 2.62916,1.25288 2.05018,4.56543 -0.58848,3.34103 -2.01221,4.66985 -3.84408,4.66985 z"
             id="path46538" /><path
             d="m -115.08395,-177.41299 h 1.37627 l 1.16746,-6.60612 c 0.37017,-2.1356 1.72746,-3.62578 3.23662,-3.62578 1.10102,0 1.66102,0.57899 1.31933,2.54374 l -1.3573,7.68816 h 1.37628 l 1.35729,-7.72613 c 0.41763,-2.34441 -0.51254,-3.80611 -2.43933,-3.80611 -1.16746,0 -2.14509,0.74983 -2.89492,1.93628 h -0.0759 l 0.32271,-1.71798 h -1.39526 z"
             id="path46540" /><path
             d="m -95.897683,-192.65643 -1.006104,5.74239 h -0.09492 c -0.446103,-1.30983 -1.262376,-2.03119 -2.724076,-2.03119 -2.477291,0 -4.242721,2.11662 -4.888151,5.78035 -0.62644,3.52137 0.31322,5.99867 2.98035,5.99867 1.37627,0 2.420345,-0.66441 3.30306,-2.0217 h 0.04746 l -0.303729,1.77492 h 1.376275 l 2.686109,-15.24344 z m -5.324757,14.22784 c -1.49018,0 -2.60069,-1.30034 -2.0312,-4.54645 0.57899,-3.27459 2.27798,-4.66985 3.8251,-4.66985 1.698988,0 2.410854,1.74645 1.926785,4.48001 -0.512544,2.89493 -1.936277,4.73629 -3.720685,4.73629 z"
             id="path46542" /><path
             d="m -82.544898,-188.72693 -4.138317,10.43122 -0.199323,-4.29018 -0.256272,-6.14104 h -1.490173 l 0.816273,11.31394 h 0.721358 c -0.560001,1.48068 -1.328817,2.64814 -2.496278,2.64814 -0.541019,0 -0.797291,-0.019 -1.10102,-0.13288 l -0.446103,1.02508 c 0.484069,0.17085 0.939663,0.25628 1.357292,0.25628 1.793903,0 2.87594,-1.31933 3.920011,-3.74917 l 4.812217,-11.36139 z"
             id="path46544" /><path
             d="m -77.690866,-177.16621 c 2.410854,0 4.498996,-1.81289 5.191879,-5.76138 0.73085,-4.10984 -0.787799,-6.01764 -3.284077,-6.01764 -2.448821,0 -4.498996,1.81289 -5.201371,5.82781 -0.711867,4.0434 0.759324,5.95121 3.293569,5.95121 z m 0.05695,-1.28136 c -1.698988,0 -2.591194,-1.23391 -2.021701,-4.48002 0.60746,-3.40746 2.031193,-4.75526 3.815604,-4.75526 1.746446,0 2.629161,1.25288 2.050176,4.56543 -0.588476,3.34103 -2.012209,4.66985 -3.844079,4.66985 z"
             id="path46546" /><path
             d="m -68.157512,-177.19469 c 1.252885,0 2.173565,-0.71187 2.961364,-1.94577 h 0.07593 l -0.322713,1.72747 h 1.395258 l 1.993226,-11.31394 h -1.376275 l -1.167461,6.60613 c -0.370171,2.13559 -1.698988,3.62577 -3.293569,3.62577 -1.746445,0 -1.376275,-1.87933 -1.262376,-2.54374 l 1.357292,-7.68816 h -1.376275 l -1.357292,7.72613 c -0.417629,2.34441 0.541018,3.80611 2.372888,3.80611 z"
             id="path46548" /><path
             d="m -60.79773,-177.41299 h 1.376275 l 1.063054,-6.04612 c 0.446103,-2.49628 1.594581,-3.95798 3.189161,-4.08137 0.199323,-0.0285 0.512544,-0.009 0.863732,0.0949 l 0.218305,-1.26237 c -0.24678,-0.1139 -0.635934,-0.18983 -1.129494,-0.18983 -0.920681,0 -1.812887,0.68339 -2.477296,1.98373 h -0.05695 l 0.341696,-1.81289 h -1.395258 z"
             id="path46550" /><path
             d="m -46.419851,-177.16621 c 1.926785,0 3.113229,-1.03458 3.967469,-2.87594 l -1.082037,-0.53153 c -0.493561,1.19593 -1.328818,2.16407 -2.828483,2.16407 -2.145091,0 -2.154583,-2.48678 -1.793904,-4.53696 0.379663,-2.15458 1.376276,-4.78374 3.597299,-4.78374 1.357292,0 1.869836,0.79729 1.917294,2.11661 l 1.252884,-0.40813 c -0.24678,-1.79391 -1.110511,-2.9234 -3.12272,-2.9234 -2.866449,0 -4.451539,2.6956 -5.002049,5.80883 -0.55051,3.13221 0.142374,5.97019 3.094247,5.97019 z"
             id="path46552" /><path
             d="m -37.190225,-177.16621 c 2.410854,0 4.498995,-1.81289 5.191879,-5.76138 0.730849,-4.10984 -0.787799,-6.01764 -3.284077,-6.01764 -2.448821,0 -4.498996,1.81289 -5.201371,5.82781 -0.711867,4.0434 0.759324,5.95121 3.293569,5.95121 z m 0.05695,-1.28136 c -1.698988,0 -2.591194,-1.23391 -2.021701,-4.48002 0.60746,-3.40746 2.031192,-4.75526 3.815604,-4.75526 1.746446,0 2.62916,1.25288 2.050176,4.56543 -0.588477,3.34103 -2.012209,4.66985 -3.844079,4.66985 z"
             id="path46554" /><path
             d="m -30.456864,-177.41299 h 1.376275 l 1.167461,-6.62511 c 0.341696,-1.94577 1.271868,-3.64475 2.837974,-3.64475 1.309834,0 1.566106,0.72135 1.271868,2.61966 l -1.3478,7.6502 h 1.366783 l 1.167461,-6.62511 c 0.341696,-1.96475 1.28136,-3.64475 2.818991,-3.64475 1.328818,0 1.613564,1.05356 1.40475,2.23051 l -1.414241,8.03935 h 1.366783 l 1.40475,-7.97291 c 0.370171,-2.09763 -0.389153,-3.54035 -2.32543,-3.55933 -1.233902,-0.019 -2.097633,0.59797 -3.018314,1.98373 h -0.06644 c -0.06644,-1.60407 -1.063054,-1.98373 -2.173565,-1.98373 -1.129495,0 -2.069159,0.70237 -2.714584,1.98373 h -0.04746 l 0.294238,-1.76543 h -1.376275 z"
             id="path46556" /><path
             d="m -16.06384,-173.48349 h 1.376275 l 0.939664,-5.34375 h 0.04746 c 0.503052,0.91119 1.357292,1.66103 2.828482,1.66103 2.4867871,0 4.2332328,-2.11662 4.8786584,-5.80883 0.6644086,-3.77764 -0.3986452,-5.97019 -2.970856,-5.97019 -1.3383094,0 -2.4203464,0.57898 -3.2461114,1.81289 h -0.104407 l 0.284747,-1.59459 h -1.347801 z m 4.869167,-4.87866 c -1.70848,0 -2.486787,-1.74645 -1.983735,-4.61289 0.522035,-2.94239 2.012209,-4.77426 3.8061126,-4.77426 1.7654288,0 2.6196686,1.30035 2.0406839,4.58442 -0.5979679,3.38849 -2.0122092,4.80273 -3.8630615,4.80273 z"
             id="path46558" /><path
             d="m -4.4138649,-177.41299 h 1.3762751 l 1.0630539,-6.04612 c 0.446103,-2.49628 1.59458085,-3.95798 3.1891617,-4.08137 0.1993226,-0.0285 0.5125438,-0.009 0.8637313,0.0949 l 0.2183057,-1.26237 c -0.2467804,-0.1139 -0.635934,-0.18983 -1.1294948,-0.18983 -0.92068058,0 -1.81288652,0.68339 -2.4772952,1.98373 h -0.056949 l 0.3416959,-1.81289 h -1.3952583 z"
             id="path46560" /><path
             d="m 7.1222004,-188.94523 c -3.1322124,0 -4.5844199,2.96136 -5.0779806,5.76137 -0.531527,3.00882 0.3037296,5.98917 3.4454336,5.98917 1.082037,0 2.2589895,-0.31322 3.4833998,-1.41424 l -0.7118665,-1.0061 c -0.8447482,0.74983 -1.7654288,1.13898 -2.714584,1.13898 -2.0027176,0 -2.5152615,-1.91729 -2.249498,-3.99594 h 6.6440868 c 0.047458,-0.17085 0.075933,-0.33221 0.1233905,-0.60746 0.455594,-2.57221 0.55051,-5.86578 -2.9423816,-5.86578 z m -0.094915,1.28136 c 2.1166162,0 2.268481,1.49966 1.8793274,3.97696 H 3.5154104 c 0.4271199,-1.98374 1.4047498,-3.97696 3.5118745,-3.97696 z"
             id="path46562" /><path
             d="m 11.511123,-177.41299 h 1.376275 l 1.167461,-6.60612 c 0.370171,-2.1356 1.727463,-3.62578 3.236619,-3.62578 1.101021,0 1.661022,0.57899 1.319326,2.54374 l -1.357292,7.68816 h 1.376275 l 1.357292,-7.72613 c 0.417629,-2.34441 -0.512543,-3.80611 -2.439329,-3.80611 -1.167461,0 -2.145091,0.74983 -2.894923,1.93628 h -0.07593 l 1.015597,-5.64748 h -1.395259 z"
             id="path46564" /><path
             d="m 27.005165,-188.94523 c -3.132212,0 -4.584419,2.96136 -5.07798,5.76137 -0.531527,3.00882 0.30373,5.98917 3.445433,5.98917 1.082037,0 2.25899,-0.31322 3.4834,-1.41424 l -0.711866,-1.0061 c -0.844748,0.74983 -1.765429,1.13898 -2.714584,1.13898 -2.002718,0 -2.515262,-1.91729 -2.249498,-3.99594 h 6.644087 c 0.04746,-0.17085 0.07593,-0.33221 0.12339,-0.60746 0.455594,-2.57221 0.55051,-5.86578 -2.942382,-5.86578 z m -0.09492,1.28136 c 2.116616,0 2.268481,1.49966 1.879327,3.97696 h -5.391201 c 0.427119,-1.98374 1.404749,-3.97696 3.511874,-3.97696 z"
             id="path46566" /><path
             d="m 31.394118,-177.41299 h 1.376276 l 1.167461,-6.60612 c 0.37017,-2.1356 1.727462,-3.62578 3.236619,-3.62578 1.10102,0 1.661022,0.57899 1.319326,2.54374 l -1.357292,7.68816 h 1.376275 l 1.357292,-7.72613 c 0.417628,-2.34441 -0.512544,-3.80611 -2.439329,-3.80611 -1.167461,0 -2.145091,0.74983 -2.894924,1.93628 h -0.07593 l 0.322713,-1.71798 h -1.395258 z"
             id="path46568" /><path
             d="m 44.771545,-177.19469 c 1.83187,0 3.388484,-1.18644 3.701705,-2.97085 0.360679,-2.05967 -0.873222,-2.819 -2.467803,-3.46442 -1.148478,-0.52204 -2.249498,-0.95865 -2.012209,-2.27797 0.24678,-1.39526 1.433224,-1.90781 2.420345,-1.90781 0.873223,0 1.632548,0.38916 1.765429,1.71797 l 1.214919,-0.30372 c -0.199323,-1.89832 -1.594581,-2.54374 -2.970856,-2.54374 -1.471191,0 -3.454925,0.79729 -3.834587,2.95187 -0.351188,2.01221 1.053562,2.66713 2.401363,3.2651 1.195935,0.61695 2.32543,1.02508 2.07865,2.39187 -0.218306,1.26237 -1.271868,1.95526 -2.420346,1.95526 -1.176953,0 -2.38238,-0.94916 -2.372888,-2.76204 l -1.309835,0.52203 c 0.218306,2.12611 1.594581,3.42645 3.806113,3.42645 z"
             id="path46570" /><path
             d="m 52.653356,-190.59676 h 1.395258 l 0.360679,-2.05967 h -1.395258 z m -2.32543,13.18377 h 1.395258 l 1.993226,-11.31394 h -1.395258 z"
             id="path46572" /><path
             d="m 58.532461,-177.16621 c 2.410855,0 4.498996,-1.81289 5.19188,-5.76138 0.730849,-4.10984 -0.787799,-6.01764 -3.284078,-6.01764 -2.44882,0 -4.498996,1.81289 -5.20137,5.82781 -0.711867,4.0434 0.759324,5.95121 3.293568,5.95121 z m 0.05695,-1.28136 c -1.698988,0 -2.591194,-1.23391 -2.021701,-4.48002 0.607459,-3.40746 2.031192,-4.75526 3.815604,-4.75526 1.746446,0 2.62916,1.25288 2.050175,4.56543 -0.588476,3.34103 -2.012209,4.66985 -3.844078,4.66985 z"
             id="path46574" /><path
             d="m 65.265823,-177.41299 h 1.376275 l 1.167461,-6.60612 c 0.37017,-2.1356 1.727462,-3.62578 3.236619,-3.62578 1.10102,0 1.661022,0.57899 1.319326,2.54374 l -1.357292,7.68816 h 1.376275 l 1.357292,-7.72613 c 0.417628,-2.34441 -0.512544,-3.80611 -2.439329,-3.80611 -1.167461,0 -2.145091,0.74983 -2.894923,1.93628 h -0.07593 l 0.322713,-1.71798 h -1.395258 z"
             id="path46576" /></g><g
           id="g8160"
           transform="translate(-40.215724,-4.0929885)"><circle
             style="fill:none;stroke:#0066ff;stroke-width:0.692256;stroke-linecap:round;stroke-miterlimit:10;stroke-dasharray:none;stroke-opacity:1;paint-order:markers fill stroke;stop-color:#000000"
             id="path6671"
             cx="-255.65051"
             cy="46.90062"
             r="4.4194975"
             transform="rotate(118.65308)" /><path
             style="fill:none;stroke:#0066ff;stroke-width:0.394512;stroke-linecap:round;stroke-miterlimit:10;stroke-dasharray:none;stroke-opacity:1;paint-order:markers fill stroke;stop-color:#000000"
             d="m 79.013298,-245.46671 c 1.445207,-2.08645 5.518516,3.96534 8.406384,0 m -4.20319,3.0538 c -1.537739,-2.01922 5.476577,-4.02306 2.597715,-7.99495 m 1.605479,4.94115 c -2.395582,0.8385 -2.133805,-6.45173 -6.800908,-4.94115 m 5.195431,0 c 0.05719,2.53744 -6.795342,0.0357 -6.800907,4.94115 m 1.605474,-4.94115 c 2.430925,0.72972 -2.065947,6.47378 2.597715,7.99495"
             id="path7859"
             inkscape:transform-center-x="0.84103588"
             inkscape:transform-center-y="-0.65659904"
             class="UnoptimicedTransforms"
             sodipodi:nodetypes="cc"
             inkscape:path-effect="#path-effect7936"
             inkscape:original-d="m 79.013298,-245.46671 c 1.445207,-2.08645 5.518516,3.96534 8.406384,0"
             transform="rotate(118.65308,82.32254,-247.36264)" /><path
             id="path7992"
             style="fill:none;stroke:#0066ff;stroke-width:0.394512;stroke-linecap:round;stroke-miterlimit:10;stroke-dasharray:none;stroke-opacity:1;paint-order:markers fill stroke;stop-color:#000000"
             d="m 81.428432,-247.71129 a 2.2279124,2.164663 0 0 0 -1.651989,0.71353 1.8091396,1.7577789 0 0 0 1.651989,1.04422 1.8091396,1.7577789 0 0 0 1.652296,-1.04481 2.2279124,2.164663 0 0 0 -1.652296,-0.71294 z" /><ellipse
             style="font-variation-settings:normal;opacity:1;vector-effect:none;fill:#0066ff;fill-opacity:1;stroke:none;stroke-width:0.393891;stroke-linecap:round;stroke-linejoin:miter;stroke-miterlimit:10;stroke-dasharray:none;stroke-dashoffset:0;stroke-opacity:1;-inkscape-stroke:none;paint-order:markers fill stroke;stop-color:#000000;stop-opacity:1"
             id="path7997"
             cx="81.428589"
             cy="-246.83241"
             rx="0.42121556"
             ry="0.8678754" /></g></g></g><g
       id="g23092"
       clip-path="url(#clipPath23094)"
       transform="matrix(0.28704137,0,0,0.28704137,-27.856981,-38.756458)"
       style="stroke-width:3.48382"><rect
         style="font-variation-settings:normal;opacity:1;fill:#ffffff;fill-opacity:1;stroke:none;stroke-width:0.923212;stroke-linecap:round;stroke-linejoin:miter;stroke-miterlimit:10;stroke-dasharray:none;stroke-dashoffset:0;stroke-opacity:1;paint-order:markers fill stroke;stop-color:#000000;stop-opacity:1"
         id="rect23034"
         width="300.23737"
         height="300.09027"
         x="110.98414"
         y="150.06779"
         ry="0" /><path
         style="font-variation-settings:normal;opacity:1;vector-effect:none;fill:#0066ff;fill-opacity:1;stroke:none;stroke-width:0.122901;stroke-linecap:butt;stroke-linejoin:miter;stroke-miterlimit:4;stroke-dasharray:none;stroke-dashoffset:0;stroke-opacity:1;-inkscape-stroke:none;paint-order:markers fill stroke;stop-color:#000000;stop-opacity:1"
         d="m 111.01803,149.93503 v 86.69755 h 86.67791 a 20.085047,20.085047 0 0 1 13.47825,5.20537 l 0.007,-0.005 93.27751,84.50389 V 236.63275 H 411.22169 V 149.9352 Z"
         id="rect22881" /><path
         style="font-variation-settings:normal;opacity:1;vector-effect:none;fill:#0066ff;fill-opacity:1;stroke:none;stroke-width:0.122901;stroke-linecap:butt;stroke-linejoin:miter;stroke-miterlimit:4;stroke-dasharray:none;stroke-dashoffset:0;stroke-opacity:1;-inkscape-stroke:none;paint-order:markers fill stroke;stop-color:#000000;stop-opacity:1"
         d="m 217.78102,380.54008 v 69.61797 h 76.84699 z"
         id="path22933" /><path
         id="rect22883"
         style="font-variation-settings:normal;opacity:1;vector-effect:none;fill:#0066ff;fill-opacity:1;stroke:none;stroke-width:0.122901;stroke-linecap:butt;stroke-linejoin:miter;stroke-miterlimit:4;stroke-dasharray:none;stroke-dashoffset:0;stroke-opacity:1;-inkscape-stroke:none;paint-order:markers fill stroke;stop-color:#000000;stop-opacity:1"
         d="m 111.11234,261.16857 v 193.44039 h 86.67791 V 339.69298 l 126.84807,114.91598 h 86.6774 V 261.16857 h -86.6774 v 114.9165 L 197.79025,261.16857 Z" /></g></g><metadata
     id="metadata47264"><rdf:RDF><cc:Work
         rdf:about=""><cc:license
           rdf:resource="http://creativecommons.org/licenses/by-sa/4.0/" /><dc:title>Torment Nexus Logo</dc:title><dc:creator><cc:Agent><dc:title>Kevin Michael Smith</dc:title></cc:Agent></dc:creator></cc:Work><cc:License
         rdf:about="http://creativecommons.org/licenses/by-sa/4.0/"><cc:permits
           rdf:resource="http://creativecommons.org/ns#Reproduction" /><cc:permits
           rdf:resource="http://creativecommons.org/ns#Distribution" /><cc:requires
           rdf:resource="http://creativecommons.org/ns#Notice" /><cc:requires
           rdf:resource="http://creativecommons.org/ns#Attribution" /><cc:permits
           rdf:resource="http://creativecommons.org/ns#DerivativeWorks" /><cc:requires
           rdf:resource="http://creativecommons.org/ns#ShareAlike" /></cc:License></rdf:RDF></metadata></svg>
